<svg xmlns="http://www.w3.org/2000/svg" width="35.23" height="32.58" fill="none" overflow="visible" preserveAspectRatio="none" style="display:block" viewBox="0 0 35.23 32.58"><path fill="#000" d="M21 15.53c-.04-.07 0-.2-.04-.27-.1-.17-.19-.27-.32-.38q-.13-.12-.4-.2a2 2 0 0 0-.87-.05c-.7-.07-2.28 1.1-2.44.9h-.01c-.05-.06.09-.32.05-.41-.04-.1-.5-.48-.26-.85.18-.25.55-.65 1.02-.95s1.03-.42 1.2-.45q.08-.01.13-.04h.02c.22-.06.48-.14.75-.15a4 4 0 0 1 1.84.4q.34.14.78.43.36.62.42 1.26a2 2 0 0 1 .13.41c.07.38.06.8.1 1 .03.22.13.34.15.57.02.26-.06.67-.09 1.15-.06.78.1.98-.02 1.48-.1.39-.42.9-.75 1.34l-.02.02-.26.38-.11.24.25-.02c-.2.28-.4.3-.64.53-.28.25-.38.46-.61.61-.2.13-.5.2-.77.3-.27.12-.3.2-.36.27l-.04.04-.07.05c-.05.03-1.35.47-1.44.48-.6.14-.68-.05-1.18 0-.93.08-2.03.17-3.17-.3l-.04-.03q-.56-.22-1.08-.5-.76-.4-1.43-1c1.03.14-.2-1.43-.2-.32-.4-.53-.92-.73-1.28-1.37a3 3 0 0 1-.26-.65 3 3 0 0 0-.18-.57c-.37-.82-1-1.8-.47-2.22-.26-.79-.21-1.57-.32-2.12v-.05a1 1 0 0 0-.26-.42c-.02-.27.36-.95.44-1.25.05-.28.58-2.49.75-2.85.1-.36.35-.99.45-1.3.12-.39-.22-.98.76-1.26a4 4 0 0 1 1.33-1.32l.03-.02.1-.06c.1-.06.18 0 .24-.04.12-.09.29-.3.5-.48.36-.29.7-.28.47-.5l.65-.67.37-.05.3-.44c.08.48.94-.39.48-.4q.87-.38 1.79-.65c.12.48 1.3-.46 1.12-.67l.22-.06c.66-.05 1.23-.29 2.03-.27.8.04.72.11.95.34l.53-.02c.96-.58.7.48 2.3.22.43.47 1.64.52 2.47.67.1.02.12-.06.25-.04.32.05 1.03.45 1.1.22q.35.27.67.57.35.1.68.24l.13-.2c.27.49.92.89 1.15 1.22.04.07-.02.15.12.35.12.17.36.44.51.7l.03.04.08.15.48.08c.34.39.18.72.33.99l.64.93c.27.37.47.09 1.05 1.33.1.22.1.44.19.65.17.34.75 1.42.95 1.48-.08.54.2 1.86.12 2.26-.02.12-.17.15-.21.5q-.02.2-.01.54v.1c0 .26 0 .54-.03.71-.07.36-.22.47-.25.63-.03.15.06.3.03.51-.1.65-.39 1.2-.5 1.7-.18.72-.06 1.45-.14 2.11-.07.15-.2.27-.25.43a11 11 0 0 1-2.14 3.5l-.06.07A55 55 0 0 1 30 26.4c-.65.67-2.7 1.87-1.77 2.01-.15.35-2.37 1.54-2.83 1.7-.42.2-.72.48-1.07.62l-.3.11-.08.03c-.82.28-1.51.45-2.58.87-.32.12-.63.36-.83.4-.24.07-.53-.02-.84.04-.74.15-2.16.4-2.92.4-.14-.01-.2-.14-.39-.18-.76-.14-1.62-.25-1.52.18l-.12-.04c-.82-.3-1.65-.23-2.48-.37a16 16 0 0 1-6.54-2.8l-.25-.18c-.61-.43-.8-.4-1.63-1.49q-.29-.39-.62-.9c-.54-.8-.77-1.7-1.5-2.11-.48-.98-.92-1.78-.87-2.66l-.32-.2-.12-.4.19-.18c-.24-.92-.67-2.14-.61-3q0-.21.04-.5v-.04c.16-1.42.6-4.04.87-5.1.15-.61.03-.67.36-.99l.03-.43-.1-.3c.19-.8.56-1.76.9-2.5a9 9 0 0 1 1.74-2.6c.5-.53 1.03-1.01 1.5-1.37.29-.22.7-.43.97-.64.4-.32.41-.52.95-.9.91-.66 2.87-1.49 3.86-1.85.3-.11.42-.22.62-.3.87-.3 1.6-.49 2.45-.73.96 0 .9.21 1.21.37.24.12.91.41 1 .54.08.08-.15.21-.06.3-1.04.16-1.48.14-2.34.16a16 16 0 0 0-4.43 1.64l-.46.06c-.56.26-.7.52-.96.73a40 40 0 0 0-3.36 3c-2.04 1.91-2.16 5.36-2.37 7.53-.06.68-.08 2.77-.23 3.57l-.05.2c-.04.12-.18.15-.19.28.05 1.2.4 2.36.93 3.41.71 2.18 2.48 4 4.28 5.58l.04.04.4.33c2 1.6 4.7 2.05 7.48 2.39h.07c2.57.3 5.33-.55 8-1.5l.07-.03q1.77-.66 3.3-1.93c1.03-.8 2.13-2.09 3.09-3.03q.22-.2.43-.34l.07-.05c.18-.12.35-.28.48-.62l.16.09c.27-.52.34-.9.6-1.5.26-.5.73-1.92.87-2.42.08-.25.17-.13.22-.37.1-.41.13-1.34.21-1.92.07-.44.25-1.14.31-1.6l.02-.22c.04-1.37-.49-2.73-1.12-4.08-.17-.38-.32-.93-.4-1.04-.14-.22-.3-.21-.41-.36-.4-.51-.87-1.32-1.3-2.06l-.03-.04q-.17-.32-.38-.54c-1.66-1.78-4.88-2.46-7.63-2.6l-.1-.01c-1.72-.2-4.31.88-5.74 1.84-.31.19-.32 0-.57.18-.28.2-.37.4-.5.5-.34.3-.85.73-1.43 1.18l-.02.01a6 6 0 0 0-1.43 1.83c-.09.15-.25.22-.3.33-.01.05.02.2-.03.36a24 24 0 0 0-.73 4.44v.04c-.1 1.16.35 2.47.98 3.83v.02c.5 1.02 1.88 1.9 3.19 2.6l.02.02q.24.12.54.2c.52.12 1.01.31 1.1.3.21-.01.33-.18.74-.27l1.8-.43h.03a3 3 0 0 0 1.9-1.45c.29-.5.32-1.33.3-1.91a6 6 0 0 0-.2-1.85l-.12-.11-.02-.01q-.1-.03-.13-.08M9.42 18.3c.3.01-.3-1-.31-.54 0 .1.23.55.3.54m22.71 5.15.22.1.17-.43-.27.13z"/></svg>