<svg xmlns="http://www.w3.org/2000/svg" width="142.14" height="144.94" fill="none" overflow="visible" preserveAspectRatio="none" style="display:block" viewBox="0 0 142.14 144.94"><g fill="#998549"><path d="m7.27 142.5 15.72-32.88 21.35 16.7z"/><path d="M32.23 130.32c3.75-1.64 7.83-3.46 11.64-5.08l-.26 2-.29-.23c-.4-.33-.33-.37-.43-.47-.3-.26-.55-.34-.77-.52l-3.2-2.6c-1.1-.9-.42-.69-.77-1.04-.7-.69-.24.08-.59-.1l-2.58-2.13.7.43c-.38-.3-.9-.77-.2-.34l-.37-.38c-.12.06-.8-.46-.9-.45-.1 0 .28.29.28.3-.08.04-1.57-1.27-1.68-1.37-.28-.25.07-.17-.19-.36-.44-.32-.34.14-.68-.63-.31-.09-.3-.16-.58-.4-.04-.03-.06.06-.08.05-.48-.31-.05-.15-.05-.16.04-.13-.48-.46-.57-.55a55 55 0 0 0-3.37-3.01c-.29-.23-1.2-.89-1.47-1.12s-.06-.2-.18-.34c-.37 0-.6-.16-1.04-.69-.3-.02-.19-.1-.58-.37-.33-.22-.99-.5-1.23-.89.39.32.4.22.86.53.16.1 1.7 1.3 1.68 1.08 0-.12-.56-.45-.57-.48-.06-.16.3-.03.52.2l-.24-.12c.5.53.38-.12.57.52.02.08-.03.1.03.21.03 0-.05-.12.05-.06.1.07.22.28.3.24.1-.06-.3-.33-.33-.36-.23-.25.32.16.35.18.22.07.14-.07.43.08.16.08.51.39.65.48.14.1-.03-.11.07-.05s.18.18.3.25c.05.03.08-.02.1 0 .25.16.02.14.24.3.14.1.68.37.38.1l.47.32-.25-.27c.27.25.46.27.65.4.18.14.26.37.5.47.5.22-.58-.54-.7-.67-.04-.04.22.03.25.05.14.1.25.27.36.35.37.28.66.38 1.02.64a145 145 0 0 1 3.88 2.85c.42.32.6.6.8.75.44.34.55.3.94.6.58.44 1.33 1.14 1.8 1.53.32.26.68.43.77.5 1.21.9 2.66 2.04 3.65 2.81.47.36.63.62.72.7.43.3.37.15.7.42.18.14.16.23.18.26.2.18.3.13.48.26l.63.5 1.48 1.2-1.72.7-2.58 1.06c-.08.04-.1-.01-.15.01-.21.11-.08.14-.31.24q-.72.33-1.5.65c-.05.02-.1-.03-.21.02-.12.05-.18.14-.37.22-.48.2-.98.34-1.48.56-.09.03-.16.15-.29.2-.4.17-1 .36-1.34.51-1.12.48-2.13.97-3.17 1.43-.25.1-.5.13-.62.19-.3.12-.05.09-.34.21l-7.22 3.13c-.95.42-2.08.99-3 1.37-.39.16-.5.1-.77.22-.48.21-.52.36-1.02.59-.4.19-.91.28-1.33.47-.42.2-.57.38-1.05.6-.4.19-.97.39-1.4.58q-4.44 2.05-8.9 3.97l-2.9 1.23 1.38-2.8 1.43-2.91c.7-1.38 1.42-2.93 2.21-4.32.07-.13.07.13.26-.32.1-.24.17-.6.42-1.14 1.5-3.21 3.32-6.53 4.84-9.8 2.27-4.9 3.98-10.28 7.03-14.02.15-.18.35.05.36.2l-.33.27c.24.3.17.23-.13.78-.18.34.08.13.03.33-.06.27-.45 1.47-.55 1.15v.25q-.52 1.24-1 2.47c-.05.15 0 .18-.05.33-.16.4-.34.68-.52 1.08-.1.21-.04.28-.18.56-.14.27-.24.22-.31.65.24-.19-.38.88-.56 1.28-.02.06-.14.58-.27.83-.13.24-.39.58-.53 1-.07.18-.03.33-.12.53-.06.14-.22.27-.3.44-.1.18-.2.58-.24.66-.12.25-.04-.05-.12.11-.41.82-.9 1.77-1.25 2.6-.04.1.09 0 .08 0-.24.72-.15.32-.3.47-.14.16-.73 1.47-.62 1.53-.16-.03-.19.31-.22.39-.12.3-.22.18-.32.48-.03.12.15-.05.09.06-.14.28-.39.46-.58.82-.04.09 0 .15-.08.3-.07.16-.46.78-.19.54-.3.35-.28.46-.5.92-.06.12-.23.23-.32.5-.03.08.07.13 0 .25-.13.3-.36.53-.54.9-.34.69-.63 1.46-1 2.17-.1.2-.17.1-.3.39-.03.04-.11.42-.21.62l-.48.83c-.1.2-.03.28-.1.38-.21.3-.22-.02-.22.46-.16.08-.26.31-.42.32.07.2-.14.31-.22.6s.08.61-.23.54c-.03.14-.21.68-.25.77-.11.26-.12.09-.2.28-.02.04.05.03-.06.24l-.61 1.25c-.43.68.13-.41.15-.6l.08-.06c.18-.3-.03-.18-.12-.05-.1.13-.17.43-.27.53-.05.04-.18-.06-.07-.23-.14.17-.06-.12-.14-.06s-.51.92-.43.96l.25-.52c.24-.15.4.72-.07 1.23-.3.33-.15-.26-.39.41l-.38-.39.25-.14-.26.1.43.45.1-.18c.07.03 0 .1-.06.2l-.5-.5a.4.4 0 0 0 .17-.07c.05-.04-.34.04-.04-.12.33.03.47-.21.92-.4l-.34.23c.8-.22-.94.59.56 0l-.53.25c.11.02.05.24.14.24.24 0 .52-.19.77-.29.1-.04.06.03.07.03.15-.06.09-.1.21-.17.17-.08.67-.22.74-.26.19-.1-.2-.09-.18-.1.1-.12.38-.18.33-.26-.6.33-2.42 1.04-.86.2-.5.06-.45-.17.19-.46.52-.25.21-.03.52-.07.04 0 .77-.28.78-.35.03.14.31.15.21.35-.01.03-.3.15-.16.21.08.03.27.09.28.17l.12-.23c.43-.2.51-.19.79-.2-.03-.03-.31-.1.04-.2.02 0 .06.05.24 0 .37-.09.45-.1.26.18.67-.4.9-.3 1.61-.67-.24-.14-.47.02-1.12.35l-.14-.11c.94-.28.5-.1.95-.42.12-.08.79-.34.5-.39-.06 0-.47.18-.44.1 0-.01.49-.25.54-.26.62-.07-.31.47 1.18-.25.04-.02.03-.09.1-.13.15-.08.18-.01.31-.1.13-.07.28-.25.53-.25.45 0-.4.48-.84.57-.07.28 2.77-.96 2.93-1.05.74-.41-.52.19-.61.16-.04-.01-.16-.33-.4.01-.06.1.37 0 .14.15-.22.13-.16 0-.18 0-.07 0-.31.15-.35.15-.6.03-.68-.3.19-.15.25-.22-.5-.09-.16-.31.4-.28.79-.28.85-.3.7-.21-.16-.08.68-.37.47-.16-.62.43.4-.03.87-.4.37-.26.36-.45 0-.04.45-.3-.19 0l-.03.18c-.17.04-.53-.06-.62-.03-.42.14-.35.24-.65.22.23.06-.09.1-.18.18-.34.28.2.1-.75.34l.42.05-.32.15c-.22-.08-.77.18-.33-.19-.63.23-.86.37-.94.54q-.04.05-.21.13c.03.03.1.11.09.13-.1.18-.42.1-.37-.01l-.16.06c-.14.04.1-.13-.02-.1-.04 0-.41.18-.43.16-.12-.15.55-.3-.73.14.03.17.6-.12.52.11-.09.24-.51.15-.49.4l-.1-.08c-.47.31-.55.14-.72.16-.33.06-1.7.67-.4.28l-.53.28c-.18-.3-.01-.22-.9.1-.2.08-.32-.04-.43.21-.05-.17-.56.17-.63.17-.39.02.78-.7 1.07-.48.16-.2.22-.06.45-.18.33-.18.36-.23.81-.3.33-.32-1.58.62-.49-.1 1.1-.73 7.94-3.85 9.54-4.58 2.89-1.33 4.4-2.04 7.02-3.17.26-.11 2.2-.98 1.88-.62-.05.05-.86.48-.08.3-.18-.01.22-.25.25-.27.73-.56.23-.4 1.51-.96m4.5-.07c-1.7.69-.42.27-.65.7l.65-.29-.2.03zm-8.68-17.63.24.05.55.47-.12.01zm-12.74 26.8c-.36.05-.26.2-.7.31l.32.31c.31-.15.36-.23.72-.35l-.18-.07-.16.1c-.14-.08.4-.34 0-.3m-3.19 1.46c-.17.06-.87.28-.93.38-.23.31 1.6-.62.28.14l.04.08.77-.3zm18.56-7.98c-.26.1-1.46.72-1 .66.13-.02.6-.42.82-.5.14-.06.02.1.28-.05q-.04-.06-.1-.1zm.26-.74-.79.4c.25.03.6-.2.69-.07l-.2.13-.22-.03c-.2.18-.04.16-.47.33.35.1.45.2 1.09-.35-.09.18.21.51.5.06.05-.09-.28.02-.29.01-.1-.08.06-.22-.04-.3-.04-.03-.23.06-.29.01-.03-.02.12-.19.02-.19m.76.29c-.06.1.29.12.52-.02.36-.21-.3-.09-.52.02m-18.68 8.12c-.17.14-.47.26-.41.34l-.31.07q0 .04.03.08l.9-.34zm-3.18 1.32c-.37.15-.01.13-.07.22-.06.1-.4.19-.33.25l.66-.28zm33.74-14.53c-.25.08-.2-.05-.63.27.5-.14 1.12-.33 1.6-.63-.35.05-.56.23-.97.36m-27.3 11.95c.08-.12-.44.04-.52.15-.12.17.4.02.52-.16m20.34-19.02c-.46-.07-.01.61.7 1.03.06.03-.3-.35-.16-.29.02 0 .24.19.32.2.07.03.06-.08.17-.03.2.08.5.45.67.49.02 0-.15-.25-.16-.27-.2-.23-.5-.3-.54-.33-.18-.14-.1-.2-.13-.25a1 1 0 0 0-.25-.2c-.22-.3.4.23.51.27.3.1.14-.14.73.25.06.04.69.54-.04-.17 1.72 1.04-.71-.73-1-.89-.13-.07-.01.14-.11.12-.23-.05-.52-.25-.58-.12-.13.27.36.4.58.65q-.09.05-.2.08c.13-.01-.48-.53-.5-.54zm4.2 2.85c.3.35.39.18.65.52.38.1-.19-.34-.25-.4-.27-.27-.15-.4-.5-.6zm-3.03-2.46c.3.1-.13-.22-.14-.25-.07-.3 1.18.72.14.25m-8.86 12.58c-.14.05-.02.1-.13.17s-.57.2-.54.24c.04.05.87-.15.1.22q.06.02.07.06l.64-.28-.46-.1c.1-.12.2-.06.2-.06.23-.1.44-.38.12-.25m11.13-4.55c-.05-.23-.28.15-.4.23-.13.09-.35.09-.24.15a1.5 1.5 0 0 0 .64-.38m2.68-4.06c.33.19.32.1.64.44l.06-.16c-.29-.23-.36-.09-.66-.4-.05-.05.15-.06-.12-.22zm1.6.99c-.35-.26-.9-.12-.14.2.11.06.4 0 .14-.2m-11.76 6c-.68.3.11.02.32 0-1.55.74.17-.09.41.05.17-.14.47-.43.06-.3-.18.06-.09.1-.1.1-.31.12-.32 0-.7.16m7.62-8.97c.02.02.03-.07.11-.03s.2.2.25.18-.25-.3-.37-.34-.2.06 0 .2m2.1 1.89c.33.18.03-.41-.04-.46-.56-.42.12.4.04.46m-8.35 5.97c-.75.48-.06.45.51.37l.17-.18c-.23.3-.7.7.43.04-.67.24-.14-.04-.14-.05-.07-.34-.97.22-.97-.19m5.35-8.66c-.3-.23-1.13-.8-.85-.4zm-18.64 14.48c-.33.05-.6.17-.95.33.37-.03.17.08.07.15-.14.12.25-.06.26-.05.04.1-.2.23.37-.02l-.38.3c.44-.19.58-.16.9-.2-.37-.1.04-.12.32-.36.14-.12-.43-.17-.6-.15m12.43-5.5-.18.24-.26.12-.08-.08c-.12.04-.05.07-.08.09-.47.27-.68.35-1.11.42l.13.3.25-.14.07-.22.34-.04.22-.17c.53.1-.47.31-.43.44.03.07.95-.33 1.06-.44.02-.02-.27-.14.11-.18.06 0 .28.44.48-.09.03-.07-.27-.28-.52-.25m-3.4 1.31c.64.07-1.4.6-.48.48-.17.23-.13.21.16.23.02 0-.12.1-.1.1.24-.02.5-.18.55-.06l.17-.1c-.3 0 .06-.24.17-.4.06-.08-.11-.02-.07-.09.02-.02.25-.1.25-.13-.02-.1-.22-.16-.49-.12zm11.17-4.59c.16.13.54.02-.1.4l.13.04.34-.15c.14-.63 1.02-.37.46-.53-.06-.02-.31.14-.09-.08-.36.2-.38.27-.74.32m-2.45 1.2c-.72.73 1.27-.32.89-.26-.03 0-.89.46-.9.27m4.76-2.81c.33.27.47.12.48.04s-.26-.2-.29-.24c-.07-.1.15.04.06-.1l-.6-.57c-.18-.08-.06.22-.12.2-.17-.06-.3-.27-.4-.23-.2.08.27.2.33.24.18.13.1.2.22.32.12.13.23.16.34.26.04.03-.04.07-.02.08m.93.44c.34-.31-.71-.03-.81.05-.3.25.64.1.8-.05m-12.93 5.64c.33-.26-.57.03-.8.18.07.02.7-.09.8-.18m3-1.61c-.32.18.23.2.51.08.1-.22-.04-.12-.23-.05-.18.08-.02-.17-.27-.03m5.5-7.44c.06.06 1.16.74.61.24-.04-.03-.77-.57-.84-.6-.14-.04.07.23.23.37m-3.96 6.5c-.12.21-.3.29-.07.37-.43.24-.59-.06-.68-.01-.34.17.09.25-.1.42.47-.29.4-.08.78-.23.09-.04.39-.28.41-.35.03-.08-.22-.17-.34-.2m2.5-7.59c.31.31.77.38.31-.02-.22-.2-.5-.17-.3.02m-26.98 18.5.26.07-.1.03c-.28.1-.45.06-.16-.1m-.9-3.37c.1-.1.06-.42.03-.4-.2.2-.18.53-.03.4m20.08-5.25c-.47.18-.04.3.25.2-.2.03.02-.3-.25-.2M8.7 140.43l-.13.09q.14-.18.13-.1m30.98-17.1c.05.06.48.42.56.45.16.05-.09-.35-.32-.47-.03-.02-.28-.05-.24.01m-29.11 17.23v.01m32.11-14.58c-.03.33.4.48.22.16z"/><path d="M61.73 3.72c3.34-.75 10.1-.7 11.4-.62.34-.1 6.3-.56 7.02-.36a27 27 0 0 1 5.97 1.55q.51.2 1.13.38c5.15 1.38 12.69 3.58 10.65 4.7q2.62.53 5.43 1.4a40 40 0 0 0 5 4.03c2.28 1.54 4.88 2.53 4.78 4.11q1.71.64 3.53 1.5a59 59 0 0 1 11 13.54l.13.21c3.22 5.9 8.95 14.25 10.3 28.22l.02.22c.22 7.2 3.16 12.43-.75 27.94l-.05.18c-1.12 3.63-3 9.25-6.6 14.98-.11.71-1.99 3.99-4.86 7.21l-.13.15a53 53 0 0 1-5.26 5.2c-2.64 1.71-.88-1.53-5.85 2.91q-.34 1.44-.8 2.9c-7.27 5.02-5.17 2.84-7.38 3.65l-.45.1c-.74.46-.26.76-1.35 1.35-3.57 1.78-9.76 5.62-20.96 7.94l-.11.02c-4.54.94-12.1 1.91-18.44 1.12-3.12-.38-2.59-.83-3.56-1-1.4-.26-3.58-.59-6.1-1.28l-.12-.03a28 28 0 0 1-4.05-1.13c-4.56-1.78-11.13-4.32-18.33-10.95l-.05-.04c-4.32-4.23-10.62-9.98-15.88-20.5l-.02-.03c-2.95-6.02-4.51-15.31-4.25-23.39a16 16 0 0 1-.11-5.9 27 27 0 0 1-.7-7.25c.1-5.98 2.74-17.22 6.44-26.66a15 15 0 0 1 1.36-2.14c.36-.43.69-.8.81-1.02 2.37-3.84-.18-2.98 8.34-11.06-1.05.37.16-2.12 3.34-5.24 4.04-3.75 3.07-1.76 4.66-2.84l.25-.14q.27-.19.76-.6l-.6-.72c6.74-4.13 9.08-8.53 22.26-12.14a46 46 0 0 1 2.18-.47m6.53 120.11.4.03-.29-.04zm21.07-3.21c-.33-.11-1.21 0-3.44.72l-.4.17.2.3a53 53 0 0 0 3.64-1.2m-33.5-.11 1.75.69q-.94-.4-1.9-.86zm58-7.84c1.25-.7 3.81-5.9 2.34-4.88l-.96 1.23.05.98a13 13 0 0 1-.8.88 4 4 0 0 1-1.68 1l-.5.55zM63.06 95.34l.15.08.06.02a.3.3 0 0 0-.15-.16l-.2-.07zm-7.99-8.17c.6 1.1 1.3 2.21 2.03 3.24l.03.03q.14.1.16.25l.63.86-.03-.75q.76 1.02 1.6 1.97c.8.43 1.64.8 2.44 1.04a19 19 0 0 1-5.59-5.07l-.04-.05-.86-1.21zm74.9-10.19c-.27.98-.6 1.87-.75 2.5q0 .47-.02.83.08.16.33.16l-.77 2.47c-.2.8-.52 2.05-1.24 4.41l-.05.17-.74 2.2 2.33-1.2.04-.66c.85-4.65 1.07-8.54.88-10.88M72.1 85.21l.25-.01v-.02l.05-.08-.26-.03zm.1-.37.15.06-.13-.1zm.64-.32.05.02.03-.03zm4.76-.76.12-.05v-.05zm1.49-1.22-.65.53v.32l1.05-.48zM82 80.3l-.17.09c.06.13.14.19.13.23-.2.47-.42.07-.6.32l-.11.13.21.28.17.21-.54-.31-.06.05c.22.47-.03.6-.39.64v.01q-.56.56-.89.8l-.26-.13q.04-.24.18-.53-.3.12-.34.3v.13l-.13-.08-.1.07q.14.25.42.38l-.03-.11.08.09q1.02-.48 2.16-1.07l-.01-.67.13.6.29-.14q-.06-.65-.14-1.29m-2.5 2.32q-.03.07 0 .16a1 1 0 0 1-.17-.26zm3.56-2.67q-.47.13-.9.28l.2 1.24.2-.1.1-.06.5-.46zm1.68-2.01c.06.67-.09 1.08-.33 1.33l-.02.02.07.27 1.13-1.22c-.24.01-.5-.11-.81-.45zm-14.81.8q0 .2.03.28l.05-.02.02-.1zm10.97-1.92q.17.13.17.16c-.03.03-.55.2-.76.33-.2.12-.05.26.97-.35zm5.25-1.79.03.02zm-4.48-.44.1.03.16.45-.02.1.04-.01-.02-.09.03-.4-.18-.05-.03-.08zm-.05.03.07.02-.03-.04zm1.72-1.4q-.42.39-.84.74l.2.15q.45.03.97.12l.48-.48-.67-.5q-.08 0-.14-.04m-2.29 1v.02q.04 0 .07-.03zm-.16-1.07.15.6-.1.02.1.43.15-.03q-.07-.16-.15-.42l.39-.11-.27-.74-.28-.01zm.57.97.14-.01-.08-.2zm-10.63-.3.57.27-.03.04.05-.04.15.07.18.08.06-.04q-.12 0-.26-.18l-.06.02.16-.14c-.14.03-.33.01-.7-.12zm10.75-.93q.03.34 0 .7l.54-.2.1.32.04-.4-.14.07-.16-.51zm-10.16 1.2h-.02l.09-.05zm-.76-.35.1.05.07-.05-.16-.06zm-.8-1.77-.3.52.15-.01v.28q.02.01 0 .08v.38l.33-.38q.07-.18.17-.35a1 1 0 0 1-.32-.44l-.01.01.01-.01zm17.35-.04.45-.21v-.08l-.31-.14zm-1.57-1q-.21.32-.47.64l.4.12q.1-.2.17-.5l.27.54.42-.51-.02-.07q-.37-.12-.77-.22m-14.7.59-.37.3-.12.2.06.01c.18-.2.43-.48.42-.51m8.56-.48a1 1 0 0 0 .17.57l.2-.33.03-.05-.04.1.06-.09.05-.09a2 2 0 0 0-.47-.11m-9.12.14-.1.14.02.05.1-.03q.24-.05.47-.03l-.08.12.17-.1-.1-.02.27-.4zm-1.52-1.2a10 10 0 0 1 .09 1.07l.05.1.48-.06h.03l.32-.04-.01-.04-.3.08h-.04l.28-.2.03-.01-.08-.33-.04-.01.04-.02-.13-.53-.65-.13zm.99 1.02v.05h.02v-.06zm-.01-.16.02-.02v-.05q0-.09-.04-.18h-.02zm-.21-.32.04.02-.36.1.24-.15zm.06-.5.1.47h.01zm2.89-1.27q-.62.51-1.13 1.08l.05.56q.49-.65 1.14-1.27a1 1 0 0 1-.06-.37m2.36 1.42.02-.07-.07-.03zm-.66-.19.28-.07-.03-.01zm1.4-.78c.56.25.23.27-.91.62v.03q.75-.2 1.39-.5l.15-.17-.47-.1q-.07.08-.15.12m-5.83.87v-.02h-.01zM75 67.49h.02q.15.22.29.36c.08.2.13.47.16.69l-.02.08c-.5-.18-.66-.36-.9-.33l-.07.01q.12-.35.26-.68-.39.2-.74.43l.33.32.15-.07-.06.17.2.27c.2.2 0 .38.08.84l.23-.1c.05 0 .2-.05.35-.1h.02l.08-.23v-.07h.02l.03-.08-.05-.01.07-.37h.03l-.01-.08.11-.43-.27-.26q-.1-.29-.3-.36m-.03 1.41.41.09v.09l-.49-.2zm1.46-.33.17.26.01.01.02-.02-.18-.26zm-3.7.04.1.1.06.18.06-.05-.12-.12-.05-.14zm4.83-.96q-.62.48-1.04.85l.22.2.84-.9zm-4.38-.32.62.54q.44-.27.93-.5a17 17 0 0 0-1.3-.36q-.14.15-.25.32m3.69-.55q-.42.11-.8.25c.03.52.4.36.8-.25m-1.13.38.08.19.08-.25zm.22-.08.03.1q0-.08.03-.12zm-.74-1.68-.06.05-.03.16.36 1.13.1-.01.09.25.23-.07-.07-.21-.25.03q-.2-.57-.37-1.33l.32-.22-.07-.04-.35-.23zm.76 1.48.1-.03a3 3 0 0 1 .1-.54zm.8-.76-.46.11q-.13.31-.23.62.42-.14.88-.24l.13-.23zm-6.59.68q.25-.14.58-.18l-.53-.02zm8.52-.42-.11.02h.1zm-.23-.34q-.18.06-.43.23l.09.1.25.02.34-.03.06-.12zm-.09-.83q.23-.14.45-.23.28.39.55.6.27.24.45.27l.04-.34.18.02q0-.11.06-.29l-.7-.2q-.27.02-.56-.07.07-.04.16-.06l-.29-.1.1.15-.33-.15zm-8.53-1.74v.02l.05.33q.41-.05.59.02c.28.13.07.23-.5.4q.14.53.23 1.1-.74.36-.95.5v-.13l-.2.2h.11l.1.03v-.06c.15-.07.5-.23.95-.5q.07.42.04.84a12 12 0 0 1 .86-.69h-.16q0-.17.05-.32l-.4-.04.56-.35.07-.14-.7-.28q.5-.62.59-1.02l-.03-.06q-.6 0-1.27.04zM67.8 66.3l.39-.08-.21-.53zm6.65-2.65.17.08.06-.16.02.2q.1.05.11.11t-.08.1l.03.3q.15.03.28.09l-.12-.86q.38.25.66.52 0 .35-.04.57l.2.1.34.16q.3-.18.63-.34.03.2.2.85.27.17.5.36.23-.54.4-1.23l-.39-.13-.22-.08-.5.23v-.05c0-.03.2-.12.4-.22l-2.18-.75-.02-.01-.19-.06.01-.05-.1-.06.02.08-.26-.09h-.05zm7.16-.16c-.38.34-.85.94-1.42 1.28.48.1.81.33 2.06.72-.08-.15-.05-.18 0-.2l.25-.13.04-.77.42.08q-.51-.35-1.04-.65zm2.87 1.28.16.04.19-.29-.02-.03zm-5.61.2-.02.02-.01-.02zm5.75-.76q-.17.15-.62.46l.14.03q.23-.14.54-.4zm-2.1-.88q.54.6 1.03 1.25l.1.02.87-.53-.5-.69q-.84-.06-1.5-.05m1.94.1.25.36.08.13.12-.06-.1.08.1.18.18-.15-.1-.15-.08.04.07-.05-.09-.14a1 1 0 0 0-.23-.22zm-9.75 0q0 .08-.03.14l-.04-.17zm-2.72-2q.11.42.13 1 .16.29.24.58l.05-.01.02-.03.32-.46-.12-.14c0-.02.1-.06.2-.1l-.1-.7zm4.7 1.16.04-.19-.05-.02zm-6.9-.07c.29.09.5.17.6.14q.2-.06.36-.2c-.35-.2-.8-.27-.93-.4q-.02 0-.03-.03zm5.48-1.53c-.25.83-.63.73-1.01.5l.02.71.41.05c.43.06.76.1.8.03q-.09-.65-.22-1.29m-8.14-.48q-.37.39-.77.86l-.01 1.28c.57-.7 1-1.73.78-2.14m14.03 1-.13.1h.17l.04-.07q-.04 0-.08-.03m-9.25.4q.13.05.12 0l-.13-.08zm-2.08-.62-.03.26.34-.34zm5.54-1.03.23.7.06-.05-.08-.23-.17-.42zm-9.79.56.04.07.03-.13h-.1zm7.39-4.76h.01zm8.42-15.04.47.12-.01-.23-.05-.06zm1.9-8.66a1 1 0 0 0-.01.44l1 .36a.6.6 0 0 1 .25-.32q-.62-.25-1.25-.48"/></g><path fill="#000" d="M6.4 143.98c-.01.05-.12.07-.15.11-.16.17-.28.17-.48.26-.29.12-1.35.55-1.28.6l.05-.08c0-.01-.03-.02-.04-.15 0-.18.07-.57.1-.66l-.01-.25c.02-.28.1-.38.05-.68l.17-.03.2-.03c.01-.1.2-.18.23-.23s-.03-.12 0-.17.14-.1.19-.2c.08-.18-.08-.3-.05-.42s.21-.22.22-.39l-.03-.08-.15-.04c0-.08.12-.06.15-.12.04-.07-.03-.15 0-.2.01-.04.11-.06.13-.11.04-.08-.07-.12-.07-.17l.1-.37c.06-.14.2-.07.27-.17.17-.27.2-.63.28-.93q.05-.2.18-.36c.3.38.8.12.12-.03.15-.1.03-.27.12-.38.05-.08.17-.1.22-.21.1-.21-.05-.56.43-.4.04-.29.3-.42-.06-.7 0-.08.32-.12.39-.18.06-.05.42-.52.46-.6q.07-.1.11-.24v.02-.07c0-.11-.4-.37.17-.3.04-.2.09-.27.22-.42.02-.02.1 0 .1-.01.03-.04 0-.13.02-.2.04-.12.23-.11-.02-.2l-.03-.28.18-.02-.1-.18c.33.2.24-.17 0-.17l.4-.33c.4.2.19-.3-.05-.36l.02-.05c.17-.1.14-.27.3-.41.14-.14.17-.11.38-.08l.02-.14c-.42-.44.46-.01.22-.55.38.02.34-.34.32-.58 0-.03-.07-.06-.07-.1-.02-.09.14-.24-.07-.32l.27-.12-.05-.2-.2-.1c.27 0 .26-.2.35-.26.02-.02.1.02.16-.02.05-.05.07-.17.13-.23l-.26-.21c0-.16.28-.08.33-.15l.1-.28c0-.13-.24-.2-.06-.49.04-.05.13-.06.16-.1.04-.1-.02-.44-.18-.53.26-.02.3-.35.4-.4.02-.03.16.03.22-.04.05-.05.01-.27.07-.34.05-.08.18-.06.2-.1.02-.03-.05-.1-.03-.15.07-.15.28-.23.33-.35.08-.18-.12-.45-.17-.65.03-.03.1-.04.12-.08.22-.47.5-.99.77-1.44.12-.21.73-.6.05-.72-.07-.13.42-.58.47-.69s-.02-.23.02-.32c.1-.25.26-.4.3-.75.01-.09-.08-.23-.06-.28s.19-.06.23-.13l.14-.32q.07-.2.16-.34c.02-.03.13 0 .19-.02.21-.11.29-.3-.08-.43.3-.13.21-.41.3-.62.18-.43.64-1.17.68-1.6.03-.27-.12-.34.18-.61l.23-.2c.19-.18.56-.24.32-.56.2-.2.25-.42.61-.46l-.16-.16.04-.09.2.07c.13-.2.01-.6.1-.77.17-.3.67-1 .9-1.24.13-.13 0-.2.31-.15v-.13l-.14-.15c.1-.19.3-.36.4-.54.16-.32.25-.89.51-1.16.07-.07.24-.12.28-.2.05-.11-.14-.23-.07-.39.11-.25.56-.62.64-.88.02-.07-.04-.14-.03-.19.05-.22.12-.39.06-.61.26-.13.52-.04.8-.03.21 0 .73-.06.91-.14.13-.03.28.14.43.1.02.56-.15.57-.42.77q-.23.67-.5 1.29l-.25.02c-.15.12 0 .27 0 .37.01.76-.63 1.77-1.17 2.56q-.24.35-.41.64c-.1.17-.31.8-.48.88-.05.02-.16-.03-.18 0q-.15.51-.26 1.03c-.47.56-.64 1.3-.9 1.96l-1.15 2.9a59 59 0 0 1-1.06 2.43c-.16.33-.26.8-.47 1.1-.08.13-.3.1-.24.35l-.16-.06c0 .18.07.34 0 .52-.06.15-.22.55-.3.67-.04.07-.13 0-.16.06-.05.11-.02.4-.08.56-.06.13-.28.31-.31.43-.11.4-.13.88-.36 1.27-.06.1-.25.2-.26.23-.02.07.09.14.08.2-.02.26-.33.56-.44.79-.35.73-.65 1.54-1.01 2.27-.23.46-.56 1.24-.84 1.64-.06.08-.18 0-.21.08-.04.09.02.17.01.21-.08.3-.28.96-.49 1.19q-.03.03-.09.03v.02q-.07 0-.08.03c-.01.01.04.08.02.13-.15.44-.34.73-.57 1.13-.44.76-.8 1.7-1.3 2.48-.11.17-.35.2-.36.23-.02.06.07.15.04.28-.12.4-.52.84-.67 1.21-.07.19-.09.5-.17.68-.06.15-.32.44-.31.53 0 .06.1.15.08.2m.68-5.57c.2.13.15-.21-.01-.17-.04 0-.04.14.01.17m5.78-12.04-.22-.08.05.14h.15z"/></svg>