<svg preserveAspectRatio="none" overflow="visible" style="display: block;" width="36.2165" height="13.3196" viewBox="0 0 36.2165 13.3196" fill="none" xmlns="http://www.w3.org/2000/svg">
<path id="Vector 1305" d="M2.02301 3.1483C1.98126 3.16655 1.93077 3.04268 1.88432 3.03343C1.69435 2.99454 1.62478 2.91232 1.50388 2.87161C1.48887 2.8658 1.47098 2.86267 1.45901 2.86021L1.54203 2.84622C1.53729 2.84658 1.53247 2.84697 1.52755 2.84741C1.37258 2.89107 1.0068 2.52749 0.636491 2.15903C0.26759 1.78531 -0.00646472 1.64464 0.000116038 1.66031C0.000116171 1.66031 0.000232586 1.66034 0.00046446 1.6604C0.00559626 1.66451 0.102472 1.67277 0.110064 1.65296C0.117041 1.6307 0.0829718 1.5615 0.156636 1.36368C0.213648 1.23172 0.316088 1.0093 0.436874 0.865717C0.555772 0.716402 0.69294 0.657731 0.737647 0.614658C0.798265 0.55464 0.856784 0.398313 0.94648 0.344316C0.971539 0.329478 0.996279 0.318056 1.02088 0.309442C1.02796 0.30696 1.03499 0.304561 1.04195 0.302236C1.05307 0.300213 1.0864 0.294269 1.09762 0.292853C1.41724 0.218658 1.57598 0.250984 1.85562 0C1.97463 0.151715 2.08066 0.306454 2.18369 0.463399C2.33219 0.402134 2.53165 0.620227 2.61298 0.61849C2.68402 0.61716 2.7381 0.503291 2.81089 0.506495C2.89505 0.509767 2.99843 0.653231 3.14524 0.655391C3.3875 0.660406 3.47936 0.359289 3.63076 0.344335C3.78578 0.328712 3.98432 0.538982 4.18877 0.467205C4.21912 0.437959 4.24971 0.408781 4.28054 0.379672C4.27982 0.29961 4.279 0.219576 4.27808 0.13957C4.38166 0.122956 4.38844 0.28826 4.47296 0.308818C4.57276 0.333282 4.66117 0.196314 4.7271 0.211228C4.78222 0.22385 4.83002 0.359794 4.90499 0.368867C5.01118 0.382049 5.02925 0.204592 5.09341 0.18521C5.11997 0.177404 5.55797 0.180352 5.58407 0.185956C5.76166 0.222229 5.71551 0.461999 5.85186 0.518862C6.22411 0.674517 6.6698 0.592149 7.04724 0.622391C7.21538 0.635755 7.37616 0.697753 7.52134 0.782349C7.08997 1.31044 7.4895 1.94437 7.57761 0.939839C7.70837 1.12619 7.91107 0.909689 8.06305 1.00437C8.15889 1.06523 8.18937 1.21864 8.34308 1.26415C8.60883 1.34172 9.02948 1.06942 8.8776 1.76377C8.92354 1.76189 8.96686 1.76612 9.00819 1.77365C9.05278 1.78177 9.09503 1.79373 9.13574 1.80597C9.18681 1.82363 9.32873 1.8897 9.37479 1.91796C9.5636 2.02332 9.70391 2.12328 10.0177 1.78361C10.1106 1.79586 10.1004 2.22783 10.1532 2.32097C10.2057 2.40855 10.6979 2.92489 10.7861 2.99646C10.8765 3.06721 11.0346 3.18535 11.1462 3.19476C11.2831 3.20562 11.7256 2.72051 11.4691 3.46754C11.7103 3.56128 11.772 3.63201 11.9086 3.84055C11.9334 3.87841 11.8707 3.97245 11.8906 3.98716C11.9318 4.01749 12.0507 4.00155 12.13 4.04829C12.2615 4.12613 12.1835 4.36622 12.3914 4.06816C12.5086 4.08118 12.625 4.09449 12.7425 4.10966C12.7272 4.18686 12.7115 4.26383 12.6952 4.34056C12.7851 4.31457 12.8743 4.28832 12.9657 4.26417C12.5852 4.63126 13.0736 4.63219 13.1721 4.32228C13.2577 4.53487 13.3367 4.74661 13.4128 4.96156C12.9925 5.38501 13.6829 5.30498 13.884 5.04987C13.9009 5.06668 13.9176 5.08351 13.9343 5.10034C13.9703 5.35723 14.1981 5.40249 14.2939 5.66588C14.3858 5.9278 14.3255 5.95113 14.1648 6.18592C14.2141 6.2199 14.2646 6.25632 14.3137 6.29213C15.1076 6.08718 14.0319 6.80358 14.803 6.9351C14.7386 7.01683 14.7059 7.09236 14.6949 7.16052C14.6792 7.25568 14.7092 7.34157 14.7612 7.42023C14.8643 7.57999 15.0243 7.73967 15.1356 7.87848C15.1612 7.91031 15.2508 7.88891 15.2902 7.93159C15.3896 8.04129 15.3176 8.35771 15.6086 8.30871C15.5374 8.4258 15.4618 8.53688 15.3832 8.63986C15.4427 8.71583 15.5006 8.79213 15.5572 8.8693C15.6497 8.86553 15.7421 8.86176 15.8346 8.85796C15.5259 9.03347 15.6457 9.26739 15.5675 9.38268C15.5517 9.40524 15.4243 9.40789 15.3876 9.47656C15.3443 9.55697 15.3764 9.70669 15.3324 9.79848C15.4718 9.84066 15.6112 9.88291 15.7505 9.92509C15.8191 10.094 15.4445 10.132 15.4115 10.2239C15.4051 10.2423 15.4215 10.5395 15.4301 10.5516C15.4927 10.6713 15.8022 10.6663 15.7475 10.9443C15.7384 10.9916 15.6328 11.0351 15.6333 11.0723C15.6329 11.1031 15.7039 11.1516 15.7929 11.1337C15.8839 11.1209 15.9734 11.0231 16.0678 10.9582C15.9187 10.9822 15.8263 10.9062 15.6922 10.8253C15.5585 10.745 15.4545 10.7132 15.4181 10.7467C15.3951 10.7675 15.3477 10.9451 15.3435 10.984C15.3435 10.9853 15.3435 10.9863 15.3436 10.9871C15.053 10.9862 14.9858 11.0159 14.9633 10.9845C14.9468 10.9659 14.9574 10.9369 14.9789 10.9347C15.0363 10.9281 15.152 11.0328 15.1868 11.02C15.2202 11.0069 15.171 10.8871 15.2089 10.8562C15.3302 10.7593 15.5811 10.8011 15.688 10.7045C15.8138 10.591 15.754 10.3023 15.7263 10.0693C15.721 10.0138 15.7177 9.96133 15.7193 9.91458C15.7499 9.90557 15.7962 9.91262 15.8347 9.91099C15.8576 9.91003 15.8777 9.90601 15.8903 9.89383C16.3098 9.49117 16.8233 9.05417 17.3029 8.66474C17.5246 8.48573 18.3857 8.30655 17.6417 7.87819C17.6034 7.70717 18.3688 7.40793 18.4751 7.31137C18.5795 7.21511 18.5573 7.03286 18.638 6.95295C18.884 6.71107 19.1318 6.62058 19.3715 6.2476C19.4332 6.15122 19.4137 5.94782 19.4672 5.90647C19.5317 5.85696 19.7054 5.92457 19.7932 5.86731C20.0001 5.72869 20.3435 5.40654 20.5625 5.29155C20.6023 5.27066 20.6968 5.3745 20.7738 5.37458C21.0733 5.37502 21.2919 5.2215 21.0122 4.8782C21.4199 4.91968 21.5575 4.58239 21.8227 4.43277C22.3781 4.10309 23.497 3.79534 23.9816 3.49624C24.2559 3.32213 24.2448 3.1598 24.6218 3.15858C24.6636 3.15998 24.7106 3.16411 24.7642 3.17136C24.7757 3.17291 24.7871 3.1746 24.7987 3.17641C24.8937 3.19133 24.9916 3.21433 25.105 3.22965C25.4041 3.2701 25.7299 3.55802 25.8574 3.1042C26.1906 3.14718 26.4199 3.02279 26.7203 3.32882C26.7307 3.23914 26.741 3.14947 26.7514 3.0598C26.7889 3.05027 26.8262 3.04077 26.8635 3.0313C26.891 3.10946 26.9185 3.18764 26.9459 3.26582C27.224 3.23385 27.5026 2.83736 27.7358 2.79598C28.1228 2.7258 29.1456 2.67376 29.5295 2.72048C29.7364 2.74424 29.7167 2.56952 29.8888 2.90629C29.9278 2.87414 29.9665 2.84206 30.0055 2.80997C30.0199 2.72734 30.0343 2.64473 30.0487 2.56212C30.2996 2.51644 30.6181 2.58813 30.8539 2.54865C31.2896 2.475 31.9106 2.15828 32.3714 2.23492C32.4841 2.25465 32.6486 2.39535 32.7551 2.37814C32.9084 2.35352 32.9122 2.07966 33.1099 2.04677C33.4545 1.98962 34.1345 2.21647 34.4573 2.15311C34.554 2.13419 34.5893 2.02856 34.6538 2.00999C34.932 1.93031 35.1621 1.9124 35.4238 1.72932C35.749 1.95749 35.7518 2.29448 35.874 2.62259C35.9619 2.87001 36.2218 3.44549 36.2113 3.67119C36.2165 3.82787 36.2031 4.02998 36.2165 4.20226C35.9962 4.35235 35.8036 4.22081 35.5186 4.00608C35.0199 4.06887 34.5152 4.14156 34.0139 4.21789C33.9557 4.13061 33.8966 4.04347 33.8369 3.95647C33.8368 3.95626 33.8368 3.95606 33.8368 3.95585C33.6309 3.87396 33.5779 4.12629 33.4814 4.19531C32.5583 4.852 30.5313 4.7575 29.4204 4.89864C29.1841 4.92707 28.4343 5.19364 28.2459 5.07399C28.1968 5.04268 28.1582 4.90211 28.1124 4.90433C27.7261 5.06511 27.3461 5.22671 26.9644 5.39066C26.4025 5.35206 25.8568 5.49324 25.326 5.65439C25.2731 5.67042 25.2201 5.68674 25.167 5.70317C24.9539 5.77098 24.7491 5.84632 24.5475 5.91706C22.5675 6.58341 21.2274 8.08876 19.7432 9.73487C19.4533 10.0498 19.1803 10.5524 18.8274 10.8201C18.6802 10.932 18.4307 10.8009 18.4149 11.1166C18.3597 11.0679 18.3046 11.0191 18.2495 10.9704C18.171 11.1841 18.1988 11.399 18.0457 11.5819C17.9908 11.6471 17.8926 11.7554 17.7862 11.8645C17.7379 11.9142 17.6871 11.9642 17.6375 12.0108C17.5362 12.1063 17.439 12.1878 17.3777 12.2282C17.2948 12.2834 17.2292 12.1586 17.1612 12.2194C17.0477 12.3233 16.9099 12.6825 16.7056 12.8324C16.5648 12.9347 16.3072 13.0195 16.0051 13.1318C15.9053 13.1681 15.7947 13.208 15.6737 13.2468C15.5637 13.2793 15.4268 13.3229 15.1732 13.3139C14.7198 13.3664 13.8299 13.0508 13.4627 12.4599C13.089 11.9091 13.0325 11.4828 13.0268 11.1378C13.0286 10.9325 13.2021 10.7054 13.1974 10.6563C13.1876 10.5539 13.0193 10.521 12.9988 10.4535C12.8957 10.1026 13.1226 9.65227 13.1348 9.39233C13.1708 8.87754 13.0807 8.39311 13.0034 8.30386C12.981 8.26266 12.9559 8.21905 12.93 8.17631C12.8234 8.00008 12.6905 7.81551 12.5467 7.6262C12.2672 7.24064 11.5896 6.65773 11.2643 6.23891C11.1955 6.14809 11.3344 6.02136 11.2596 5.962C11.1773 5.89695 11.0552 5.96118 11.0101 5.93902C10.7002 5.78512 10.0145 5.4487 9.81386 5.1599C9.77592 5.10425 9.81945 4.95836 9.7882 4.93789C9.77246 4.92726 9.68178 4.98558 9.62648 4.96071C9.1381 4.74207 8.84628 4.48684 8.41977 4.18137C8.32285 4.11226 8.22387 4.04641 8.11925 3.98061L8.35448 4.09082C8.31473 4.07658 8.27489 4.06266 8.23498 4.04903C7.39924 3.7637 6.4461 3.57679 5.62639 3.25299C5.41738 3.16997 5.33637 2.85501 5.306 2.84959C5.23815 2.83682 5.14361 3.00728 4.99534 3.01553C4.50544 3.0407 3.94245 2.69578 3.49258 2.70008C3.27177 2.70122 2.94505 2.8804 2.74113 2.90012C2.57651 2.91327 2.22057 2.77442 2.14904 2.87244C2.1032 2.93029 2.06843 3.12748 2.02301 3.1483ZM8.45229 1.46794C8.3166 1.7731 8.73089 1.61826 8.6642 1.40848C8.64875 1.36106 8.48701 1.38847 8.45229 1.46794ZM16.8749 9.74577C16.802 9.68066 16.7291 9.61553 16.6562 9.55037C16.6556 9.60952 16.6554 9.66836 16.6548 9.72752C16.7141 9.75074 16.7734 9.77388 16.8328 9.79691C16.8468 9.77992 16.8608 9.76297 16.8749 9.74577Z" fill="#0413D8"/>
</svg>
