<svg width="154" height="65" viewBox="0 0 154 65" fill="none" xmlns="http://www.w3.org/2000/svg">
<path d="M100.149 23.309C98.927 21.1673 97.3958 19.5572 95.644 18.2112C92.1843 15.6548 88.3105 15.0313 82.8265 12.6709C82.7549 12.6336 82.6474 12.5835 82.5264 12.5313C75.9624 10.885 72.853 9.09358 63.115 11.5663C62.8609 11.6455 62.6003 11.7285 62.3537 11.8099C60.9681 12.2757 59.3495 13.2959 57.6608 14.5232C55.5733 15.5991 54.9996 20.8784 53.5126 25.295C52.3592 28.4897 50.2958 30.2684 49.0385 31.4833C45.4134 34.6198 43.5516 33.7957 40.2539 34.6811C38.356 35.2883 36.146 34.994 34.1729 34.4595C28.7075 32.7753 26.1723 31.2846 22.7954 30.4429C21.7014 30.1326 20.1851 29.9876 18.5235 29.9717C16.4709 29.9562 12.5922 30.386 8.85386 32.0353C6.20371 33.1546 4.01626 35.8501 3.77713 38.6909C3.48132 42.1609 8.21714 43.9335 10.3482 44.4859C13.7734 45.414 17.3188 46.2786 21.0274 48.3927L20.8703 48.3175C22.87 49.4247 24.8215 50.3591 26.5783 50.9864L26.498 50.9713C27.0791 51.1363 27.6105 51.2043 28.1488 51.2009C29.5191 51.1798 30.689 51.0076 31.5812 50.938C31.9633 50.9038 32.1703 50.9976 32.2145 51.1394C32.2145 51.1395 32.2145 51.1396 32.2146 51.1397C32.2658 51.3167 32.0575 51.5704 31.5905 51.7252C30.2671 52.1168 28.5769 52.8679 26.236 52.775C26.2222 52.7725 26.1808 52.7657 26.1673 52.7621C24.6589 52.5818 22.9884 52.3192 21.2008 51.9498C20.5974 51.8254 20.0396 51.6879 19.5204 51.5426C19.4889 51.5281 19.3948 51.4857 19.3649 51.4682C13.9551 49.7736 12.2084 50.222 2.908 44.5193C1.22548 43.1709 -0.128348 40.7255 0.00975943 38.3741C0.158033 33.7495 2.88914 29.8499 6.66477 27.7384C10.7803 25.5472 15.1139 24.1231 21.486 24.3625C22.2336 24.4178 22.9725 24.4997 23.731 24.6427C27.5393 25.4058 30.3077 26.4183 32.8301 27.1694C34.0789 27.5473 35.273 27.8902 36.2795 28.0544C36.7764 28.1356 37.2174 28.1598 37.4846 28.1177C37.762 28.0769 37.7822 27.9811 37.7179 27.9547C40.7924 26.5195 44.941 25.1875 46.4601 22.8603C46.4764 22.829 46.4927 22.7973 46.5091 22.7651C48.5773 18.247 48.7929 12.0553 53.1803 8.54424C55.1212 6.85591 57.004 5.07731 60.0039 3.77308C64.2089 1.9394 68.8381 0.245548 76.7883 -1.85966e-05C79.8997 0.0231929 82.9461 -0.0430069 87.288 1.56367C92.3317 3.57138 98.3906 6.80239 102.571 11.7003C107.221 16.9155 110.034 23.2409 112.312 25.0938C112.507 25.283 112.661 25.3565 112.425 25.2727C112.302 25.2366 112.05 25.1525 111.598 25.147C111.156 25.1352 110.499 25.2768 110.021 25.5552C111.041 25.0463 112.513 23.9715 113.735 23.1205C117.563 20.3039 124.847 16.2333 132.755 18.632C137.513 20.0435 145.173 21.4862 149.911 28.6211C151.279 30.743 152.401 33.1546 153.011 35.8324C153.468 37.8358 153.655 40.0225 153.433 42.2265C153.231 44.0941 153.008 46.1929 152.13 48.5974C151.327 50.943 149.221 53.9184 146.212 55.1911C137.876 58.6037 129.162 66.0967 116.197 64.6406C114.698 64.3861 113.185 64.1205 111.66 63.8094C108.02 63.036 103.731 62.1732 99.4143 59.8163C93.5483 56.3377 90.4853 51.753 86.5686 48.8521C84.1057 46.8741 81.462 46.277 78.8711 47.0408C74.808 48.2265 71.4948 49.912 68.9311 51.3283C65.8202 53.0591 63.2863 54.4905 60.8165 55.2315C56.6047 56.3968 54.0523 59.2763 46.7498 60.3894C46.6428 60.398 46.5343 60.4038 46.424 60.407C39.2794 59.8317 32.8834 54.4862 27.7075 49.8587C25.1743 47.4439 26.1979 47.3949 29.2 49.1548C33.5875 51.7062 36.9736 54.1321 39.6126 54.5989C42.9074 55.1534 45.4579 55.3955 46.5106 55.3217C47.6136 55.2393 48.9386 55.1359 50.9621 54.6955C54.4979 53.8689 56.6636 51.9081 59.1254 50.5304C60.1897 49.8026 61.0524 49.0174 62.3084 48.3782C65.1202 47.2084 65.3703 46.6018 76.8866 41.5225C79.472 40.4856 83.3777 40.019 87.2096 41.5232C88.418 41.98 89.5144 42.5634 90.4918 43.1838C96.4069 47.0441 100.134 51.0791 103.194 52.2826C108.153 54.3329 113.458 54.4677 117.532 54.9889C118.129 55.0454 118.704 55.0539 119.266 55.0275C123.345 55.3208 132.769 51.2667 142.51 46.8222C142.88 46.6561 143.051 46.5258 143.353 45.9809C143.638 45.4479 143.884 44.555 144.014 43.5417C144.097 42.9214 144.162 42.2014 144.216 41.3818C144.361 39.2824 143.693 36.6175 141.884 33.9614C140.086 31.0436 135.477 29.416 130.025 27.9797C125.874 26.7247 122.068 29.0785 119.322 31.2491C117.851 32.4002 116.575 33.454 114.826 34.4039C111.979 35.8999 109.465 34.9854 108.429 34.4996C107.261 33.9364 106.64 33.3974 106.111 32.9267C102.992 29.8908 102.53 27.4497 100.149 23.309Z" fill="black"/>
</svg>
