<svg width="110" height="45" viewBox="0 0 110 45" fill="none" xmlns="http://www.w3.org/2000/svg">
<path d="M49.938 10.3475C49.8019 10.3379 49.6725 10.3412 49.5552 10.3547C46.7105 10.8948 46.2282 14.4636 43.4019 18.2656C41.9239 20.0304 39.5209 21.5279 37.2054 22.0826C31.8054 23.1913 29.9822 22.0774 27.5973 21.6711C24.0973 21.2716 20.9645 19.3788 17.6431 17.5164C16.925 17.1304 16.2793 16.7655 15.6995 16.4563C15.7453 16.5223 15.9583 16.4865 15.6461 16.4873C15.3636 16.4951 14.7655 16.6472 14.1166 16.9254C12.7788 17.4894 11.3454 18.4037 9.78284 19.4006C9.64073 19.4569 9.59712 19.4877 9.54426 19.6812C9.49886 19.8667 9.51549 20.1775 9.64637 20.454C9.90416 20.9962 9.85262 21.4572 9.676 21.864C9.42993 21.874 9.02924 22.0629 9.04504 22.5129C9.05501 22.9479 9.53194 23.5964 10.811 24.0001C12.4065 24.5004 13.9708 24.8996 15.5166 25.4847C16.9258 26.0129 18.9934 26.614 21.3289 27.2571C22.8683 27.6686 25.7738 28.0678 28.8817 27.8277C32.1026 27.5921 35.7191 25.6333 38.8965 24.3506C40.487 23.7398 41.8851 23.4956 42.9284 23.25C46.0432 22.5499 49.2716 23.51 51.8251 24.8633C53.2497 25.7065 54.9429 26.3189 56.29 26.6215C56.3042 26.6217 56.3462 26.6276 56.3603 26.6288C56.4541 26.655 56.5427 26.6811 56.6264 26.706C57.6 27.0403 58.1722 27.1526 58.8276 27.1852C59.0884 27.2013 59.2581 27.3266 59.3127 27.4915C59.3127 27.4916 59.3128 27.4917 59.3128 27.4918C59.3793 27.6953 59.2608 27.9644 58.908 28.0801C58.205 28.3544 57.044 28.4051 56.1156 28.3742L56.1739 28.3802C54.8349 28.4892 53.2717 28.6569 51.3666 28.5994C51.1045 28.5899 50.8495 28.5702 50.6014 28.5407C48.3922 28.4178 47.1553 28.1586 45.719 27.8544C44.3357 27.6034 42.4714 27.1817 40.162 28.1534C39.9676 28.2403 39.7595 28.3398 39.5459 28.4486C36.3402 30.0955 33.7886 32.288 29.6906 33.304C26.4029 34.069 22.9963 34.2791 18.5852 33.4081C16.622 32.9903 15.0168 32.774 13.1597 32.2995C11.3637 31.8683 9.56394 31.7253 7.42285 31.0817C5.52041 30.3488 1.81439 29.4808 0.259834 23.8678C-0.170878 21.1848 -0.560059 17.2276 3.41831 13.4225C3.92783 12.9882 4.46237 12.6263 4.99285 12.3332C9.73282 10.3437 13.3385 5.96547 20.2721 8.2939C23.3937 9.31966 26.9567 10.3232 27.3091 9.58892C28.0138 9.50115 28.7441 9.42156 29.4711 9.34316C30.785 9.20427 32.0096 9.04153 32.7688 8.85348C33.5629 8.64431 33.6661 8.59749 33.9773 8.41946C36.7039 6.09767 40.6746 1.96627 46.4846 0.49723C51.0367 -0.604808 54.913 0.261426 58.0778 1.7615C60.9628 3.27767 62.1134 4.32892 63.4372 5.05575C66.0439 6.75131 69.7445 7.7952 69.7081 7.31158C71.3231 6.60862 78.3535 2.74221 84.2554 4.45568C85.3882 4.70999 86.6168 4.97782 87.928 5.32466C91.2111 6.19466 95.8465 7.48254 99.5106 11.0833C101.251 12.7627 103.089 14.427 105.027 16.4678C105.995 17.5113 107.002 18.6096 108.031 20.2494C108.94 21.754 110.567 24.8026 109.251 28.6424C108.069 31.8875 106.783 35.2151 104.228 38.5598C103.053 39.9339 101.828 41.7339 98.5165 42.9926C93.6218 44.2741 88.5963 44.9709 82.8927 42.8633C78.7907 41.1472 75.2989 38.2502 73.1259 35.2617C71.3026 32.6962 70.1137 30.7603 68.9586 29.4868C67.5189 27.8478 66.2365 27.142 64.9853 26.9686C62.3186 26.7101 59.4729 26.463 57.1018 27.5125C56.3723 27.9339 55.6899 28.1249 54.9907 28.2902C50.3207 29.2068 44.5009 28.0146 40.0236 25.6254C37.8204 24.3032 38.705 23.8541 41.0299 24.1696C44.4885 24.5579 47.3151 25.2539 49.1556 24.4684C50.623 23.8275 51.6738 23.2818 52.604 22.915C53.0642 22.7304 53.4913 22.5877 53.8673 22.4862C54.0548 22.4357 54.2243 22.3945 54.3391 22.3736C54.4521 22.3571 54.5229 22.3378 54.3751 22.4598C55.9994 21.732 57.0545 21.7851 58.2064 21.8327C61.5688 22.1608 63.3719 21.6574 65.1606 21.123C66.9725 20.8037 68.8203 21.0101 70.2555 21.8714C72.9076 23.652 73.3704 25.2464 78.2193 30.8029C79.1682 31.7959 80.4492 32.8424 82.2254 33.6811C83.3758 34.2229 84.5257 34.6031 85.6551 34.876C88.5746 35.4104 92.6802 34.2673 94.8735 33.2492C94.3618 33.4146 94.5456 33.344 94.7293 33.0416C94.9324 32.7476 95.1978 32.3059 95.44 31.8371C95.9319 30.8887 96.3622 29.8406 96.7208 28.8633C97.1104 27.8048 97.6786 26.4345 98.3487 24.7659C98.1731 25.2805 98.1995 25.9567 98.2915 26.2118C98.3788 26.4856 98.43 26.427 98.354 26.233C98.2104 25.8256 97.6698 24.9871 97.003 24.1412C95.6417 22.4088 93.81 20.4682 91.984 18.6125C91.3155 17.928 90.5157 17.4341 89.5417 17.0882C88.0611 16.5314 85.6131 16.0568 82.1707 15.4771C79.6119 15.0683 78.897 15.6801 73.4407 18.0455C68.9133 19.5732 65.2585 18.2803 62.8901 17.4155C60.4494 16.4561 58.7346 15.4907 57.4108 14.8591C54.9369 13.6361 53.6883 12.8038 53.4244 12.4632C52.6797 11.7836 52.0855 10.571 49.938 10.3475Z" fill="black"/>
</svg>
