<svg width="220" height="6" viewBox="0 0 220 6" fill="none" xmlns="http://www.w3.org/2000/svg">
<path d="M83.935 0.761903C85.3409 0.977093 86.5779 1.36476 88.1356 1.76226C88.1364 1.76247 88.1372 1.76267 88.1381 1.76288C88.3626 1.82037 88.5891 1.87711 88.8279 1.93469C90.5937 2.35532 92.8732 2.81748 96.2727 2.87455C96.5346 2.87867 96.8012 2.87218 97.0768 2.85428C100.661 2.51327 103.545 1.0317 105.747 0.936114C106.073 0.90529 106.367 0.888836 106.646 0.881325C107.043 0.877539 107.461 0.847889 108.501 0.950793C109.18 1.02779 110.106 1.1686 111.364 1.61094C112.031 1.84626 112.786 2.1747 113.632 2.61591C114.858 3.2181 116.272 4.24701 117.951 4.73531C120.156 5.23205 122.834 4.45088 125.237 3.78357C127.847 3.01835 130.3 2.17827 132.208 1.64699C132.972 1.43199 133.734 1.23343 134.506 1.06872C136.592 0.620169 138.742 0.765424 140.912 1.17172C143.548 1.66961 146.269 2.51442 149.388 3.45097C149.514 3.48905 149.643 3.52405 149.774 3.55602C152.267 4.12619 154.844 3.68181 157.383 3.24256C157.708 3.18388 158.035 3.12271 158.36 3.0608C160.612 2.63804 162.916 2.12849 165.462 1.90822C165.884 1.8733 166.3 1.84932 166.707 1.83807C170.814 1.81367 173.669 4.07529 177.133 4.83887C177.262 4.86124 177.397 4.8798 177.527 4.89188C178.927 5.02175 180.4 4.74048 181.917 4.2679C184.406 3.52822 187.684 1.80871 191.249 0.529014C191.486 0.44617 191.725 0.374145 191.965 0.312566C192.306 0.225492 192.647 0.160114 192.995 0.115729C192.997 0.115506 192.998 0.115283 193 0.115062C196.155 -0.300646 198.986 1.24134 201.328 1.65127C201.817 1.73976 202.292 1.76865 202.739 1.75992C206.842 1.33335 208.303 0.35894 209.653 0.278211C210.154 0.207219 210.626 0.168935 211.191 0.19376C211.3 0.198907 211.412 0.206827 211.528 0.218175C211.533 0.2187 211.549 0.221373 211.554 0.222568C212.915 0.533066 214.696 0.918911 216.638 1.17465L216.628 1.17352C217.414 1.24023 218.231 1.25599 219.053 1.26112C219.065 1.26118 219.076 1.26124 219.088 1.2613C219.587 1.26382 219.991 1.29108 219.989 1.32585C219.987 1.3602 219.579 1.38902 219.078 1.38644C218.239 1.38149 217.411 1.36565 216.617 1.29825C215.907 1.20349 215.218 1.09363 214.567 0.976441C214.491 0.992809 214.117 0.948254 213.676 0.859838C213.263 0.777806 212.535 0.629527 211.513 0.398555C209.699 0.110587 207.219 1.21618 203.896 1.86176C204.264 1.81437 204.57 1.75886 204.838 1.70614C205.151 1.6437 205.39 1.58886 205.595 1.54064C206.022 1.43911 206.305 1.36523 206.804 1.22818C207.904 0.944443 209.624 0.32666 211.498 0.504379C211.573 0.522211 211.657 0.541597 211.741 0.560903C212.229 0.67312 212.619 0.78633 212.609 0.819665C212.6 0.852896 212.194 0.793361 211.705 0.680943C211.695 0.678753 211.686 0.676562 211.676 0.674371C211.605 0.65793 211.533 0.641333 211.461 0.624808L211.486 0.62888C209.649 0.448352 207.868 1.08291 206.71 1.38458C206.403 1.47041 206.137 1.54273 205.937 1.59507C205.777 1.63713 205.576 1.68753 205.464 1.71342C205.449 1.71687 205.42 1.72342 205.386 1.73095C205.386 1.73107 205.385 1.73119 205.385 1.73131C205.366 1.73552 205.269 1.75704 205.164 1.77636C205.143 1.78026 205.097 1.78866 205.044 1.79709C205.03 1.79992 205.017 1.80273 205.003 1.80553C204.812 1.84451 204.617 1.88142 204.405 1.91666C203.785 1.99876 202.86 2.21237 201.276 1.9401C200.761 1.84244 200.185 1.68673 199.535 1.48609C197.745 1.00602 194.83 -0.431644 191.333 0.768993C190.252 1.14513 189.127 1.61007 187.953 2.11656C188.283 1.97685 188.615 1.83789 188.948 1.70145C189.735 1.37842 190.533 1.06634 191.34 0.789632C191.39 0.772484 191.44 0.755887 191.49 0.739832C191.816 0.634669 192.148 0.548868 192.487 0.48411C193.035 0.379121 193.592 0.33142 194.151 0.337685C194.528 0.341722 194.906 0.370113 195.281 0.418521C195.282 0.418625 195.283 0.41873 195.284 0.418835C195.804 0.486024 196.322 0.591962 196.838 0.722477C197.019 0.768154 197.196 0.81614 197.373 0.865893C198.075 1.06319 198.756 1.29148 199.55 1.53784C199.646 1.56795 199.752 1.60066 199.83 1.62457C199.914 1.65031 199.997 1.67507 200.074 1.69786C200.141 1.71794 200.207 1.73706 200.269 1.75495C200.278 1.75735 200.286 1.75974 200.294 1.76212C200.364 1.78205 200.431 1.80043 200.496 1.818C200.561 1.83546 200.623 1.8518 200.684 1.86731C200.685 1.86744 200.685 1.86758 200.686 1.86771C200.75 1.88388 200.8 1.89604 200.868 1.91208C200.954 1.93212 201.029 1.94862 201.119 1.96733C201.167 1.97722 201.216 1.98694 201.266 1.99634C201.308 2.00425 201.35 2.01182 201.392 2.019C201.486 2.03491 201.58 2.04887 201.678 2.0613C201.776 2.07367 201.875 2.0841 201.974 2.09254C202.075 2.10103 202.176 2.10748 202.278 2.11191C202.38 2.11638 202.484 2.11884 202.587 2.11928C202.826 2.12051 203.055 2.11606 203.223 2.11547C203.391 2.11486 203.486 2.11993 203.486 2.13627C203.487 2.15222 203.393 2.17831 203.223 2.20237C203.053 2.2264 202.821 2.24448 202.578 2.2444C202.512 2.24442 202.446 2.24368 202.379 2.24205C202.339 2.24109 202.299 2.23978 202.26 2.23822C202.153 2.23401 202.045 2.22755 201.935 2.21855C201.827 2.20963 201.718 2.1982 201.607 2.18393C201.497 2.16976 201.385 2.15284 201.271 2.13259C201.261 2.13087 201.252 2.12913 201.242 2.12737C201.14 2.10884 201.036 2.08804 200.931 2.06548C200.82 2.04166 200.692 2.01184 200.581 1.98403C200.499 1.96372 200.397 1.93715 200.314 1.91462C200.227 1.89108 200.14 1.86672 200.059 1.8432C199.977 1.81952 199.897 1.79591 199.821 1.77311C199.813 1.77069 199.805 1.76827 199.797 1.76584C199.73 1.74574 199.666 1.72602 199.605 1.70723C199.537 1.68612 199.473 1.66641 199.412 1.64739C199.345 1.62647 199.304 1.61372 199.254 1.59817C198.594 1.39532 197.789 1.13335 197.016 0.933361C196.919 0.908101 196.823 0.883914 196.727 0.860717C196.218 0.73758 195.708 0.639204 195.195 0.579531C194.822 0.536118 194.447 0.51312 194.073 0.514671C193.523 0.516659 192.972 0.572778 192.434 0.68589C192.1 0.755758 191.775 0.845629 191.452 0.956353C191.436 0.961843 191.42 0.967392 191.404 0.972999C190.559 1.26836 189.72 1.60427 188.886 1.9545C188.035 2.31124 187.184 2.68545 186.327 3.05391C185.473 3.42069 184.58 3.79575 183.702 4.12471C183.056 4.36677 182.384 4.5935 181.751 4.77227C181.411 4.86856 181.075 4.95411 180.741 5.02709C180.74 5.02734 180.739 5.02758 180.738 5.02783C180.444 5.09221 180.152 5.14697 179.861 5.19118C179.234 5.28588 178.609 5.33217 177.983 5.30722C177.819 5.30065 177.653 5.28895 177.49 5.27198C177.025 5.22314 176.576 5.11287 176.138 4.97965C175.547 4.79917 174.966 4.57192 174.4 4.34157C173.829 4.1089 173.275 3.87181 172.692 3.63301C171.923 3.31896 171.157 3.02284 170.355 2.77487C169.56 2.52933 168.742 2.3373 167.912 2.25186C167.622 2.22202 167.331 2.20521 167.04 2.20372C167.039 2.20372 167.038 2.20371 167.036 2.2037C166.931 2.2032 166.825 2.20472 166.719 2.20834C166.281 2.22331 165.84 2.25343 165.401 2.29488C164.557 2.37468 163.712 2.4964 162.867 2.64015C162.023 2.78397 161.175 2.95049 160.323 3.12317C159.471 3.29575 158.595 3.47896 157.712 3.64942C156.923 3.80147 156.126 3.94457 155.34 4.05859C155.131 4.08888 154.924 4.11705 154.716 4.14307C153.726 4.26633 152.76 4.33844 151.798 4.31294C150.944 4.28945 150.078 4.18618 149.242 3.93754C149.142 3.90803 149.044 3.87866 148.945 3.84944C148.033 3.57851 147.112 3.30635 146.178 3.04021C145.242 2.77401 144.313 2.51937 143.366 2.28496C142.422 2.052 141.471 1.84179 140.502 1.68121C139.964 1.59182 139.389 1.51416 138.845 1.46472C138.296 1.41443 137.749 1.38839 137.21 1.3927C136.992 1.39443 136.774 1.40111 136.56 1.41299C136.245 1.43032 135.936 1.45875 135.632 1.49828C135.292 1.54264 134.959 1.60099 134.635 1.67237C134.473 1.70816 134.31 1.74586 134.146 1.78515C133.668 1.90018 133.196 2.02694 132.751 2.15372C132.285 2.28664 131.906 2.40146 131.449 2.54466C130.341 2.89023 129.654 3.11486 128.889 3.36019C128.739 3.40865 128.585 3.45833 128.425 3.50996C127.507 3.80482 126.589 4.09711 125.675 4.36855C124.751 4.64258 123.834 4.89652 122.893 5.11121C121.956 5.32311 121.004 5.49873 120.024 5.56287C119.291 5.60774 118.525 5.59439 117.777 5.39972C117.541 5.33746 117.308 5.25991 117.083 5.17362C116.158 4.81496 115.313 4.31489 114.504 3.86402C114.037 3.60112 113.543 3.32754 113.078 3.09075C112.742 2.91939 112.41 2.76037 112.077 2.61455C111.943 2.55575 111.806 2.49836 111.672 2.44389C111.207 2.25585 110.748 2.09875 110.298 1.97282C109.848 1.84691 109.401 1.75114 108.966 1.68395C108.528 1.61633 108.093 1.57594 107.661 1.56027C107.207 1.54522 106.839 1.55155 106.356 1.58594C106.179 1.59907 106.002 1.61589 105.823 1.6365C105.695 1.65133 105.568 1.66821 105.44 1.68719C104.99 1.75435 104.545 1.84644 104.098 1.956C103.653 2.06547 103.214 2.19007 102.774 2.32263C102.632 2.36525 102.482 2.41105 102.34 2.45509C101.901 2.59109 101.465 2.72993 101.026 2.86431C100.587 2.99845 100.149 3.12705 99.7067 3.24242C99.2624 3.3582 98.8196 3.45957 98.3614 3.54136C97.6271 3.67343 96.9052 3.73312 96.2616 3.72634C96.2231 3.726 96.185 3.7256 96.1473 3.72516C95.4901 3.71737 94.8683 3.69292 94.2745 3.65545C94.1608 3.64826 94.0472 3.64054 93.9353 3.63239C93.4567 3.59761 92.975 3.55225 92.5131 3.49919C91.9353 3.43284 91.3731 3.3534 90.8119 3.25981C90.2567 3.16732 89.6926 3.05837 89.1446 2.94039C88.5908 2.82124 88.0647 2.69636 87.5016 2.5568C86.9443 2.4189 86.3848 2.27419 85.7709 2.12587C85.164 1.97984 84.5312 1.83833 83.8924 1.7424C83.3463 1.66016 82.7947 1.61282 82.2461 1.61705C82.1526 1.61771 82.0586 1.61943 81.9641 1.62214C81.3127 1.64085 80.6541 1.70692 80.004 1.79496C79.351 1.88353 78.6975 1.9951 78.0477 2.1122C77.3993 2.22918 76.7266 2.35704 76.0941 2.47277C75.0701 2.66056 74.044 2.83759 73.0073 2.9809C71.9773 3.12367 70.9375 3.23324 69.8933 3.29746C69.1343 3.34429 68.3725 3.3675 67.6108 3.36537C67.322 3.36455 67.0439 3.35919 66.7579 3.34884C65.7115 3.31133 64.661 3.20422 63.6293 3.02876C63.4022 2.99031 63.1721 2.94797 62.9473 2.90359C62.1462 2.74599 61.3611 2.55093 60.5867 2.34806C60.5814 2.34667 60.5761 2.34527 60.5708 2.34387C59.5764 2.08447 58.616 1.81779 57.647 1.65766C57.2911 1.59902 56.9494 1.55699 56.6021 1.53221C56.3268 1.51269 56.0586 1.5048 55.7865 1.50873C55.7113 1.50983 55.6364 1.51137 55.5617 1.51335C55.2108 1.52264 54.8601 1.54189 54.5141 1.57068C54.1678 1.59952 53.8297 1.63725 53.4871 1.68502C53.1771 1.72837 52.868 1.77904 52.5299 1.84345C52.4993 1.84931 52.4687 1.85522 52.4381 1.8612C52.0702 1.93284 51.654 2.02589 51.2684 2.12236C50.2479 2.37649 49.2645 2.69439 48.2593 3.03431C47.253 3.37329 46.2415 3.73012 45.1806 4.01144C44.7664 4.12096 44.3444 4.2183 43.9158 4.2956C43.3615 4.39572 42.795 4.46201 42.2228 4.48162C42.1109 4.48548 42.0007 4.48909 41.8886 4.49252C40.7993 4.52433 39.6998 4.54188 38.5793 4.46212C37.6919 4.39257 36.7779 4.27886 35.8841 3.91599C35.68 3.83128 35.4728 3.74336 35.2686 3.6556C34.2608 3.22177 33.2619 2.76979 32.2685 2.35316C31.1623 1.88966 30.0543 1.45873 28.9209 1.13699C27.7945 0.821751 26.6255 0.600345 25.5305 0.734804C25.176 0.779881 24.8333 0.866058 24.5177 1.00313C23.7921 1.31935 23.0729 1.68997 22.345 2.05326C21.2657 2.59123 20.1659 3.13303 18.9764 3.50963C18.2646 3.73214 17.5153 3.89501 16.7371 3.89629C16.3263 3.90126 15.9255 3.85765 15.549 3.76382C15.3685 3.71894 15.1946 3.6632 15.0259 3.59669C12.8791 2.56807 11.2335 2.2308 8.93825 2.01123C8.70224 1.99018 8.52181 1.97683 8.28161 1.96084C8.23698 1.95791 8.19268 1.95508 8.14547 1.95215C7.84444 1.93367 7.50145 1.9147 7.00696 1.89392C6.04553 1.85315 4.54795 1.81704 2.6294 1.8284C2.14011 1.83123 1.82784 1.80783 1.93215 1.77092C1.99898 1.74536 2.26849 1.72023 2.58317 1.70776C1.9884 1.71636 1.41706 1.72978 0.833772 1.74799C0.605403 1.75508 0.386177 1.75652 0.228453 1.75106C0.0708073 1.7456 -0.011697 1.73356 0.00138393 1.71684C0.014293 1.70016 0.122164 1.68006 0.298036 1.66147C0.473862 1.64289 0.702151 1.62757 0.930555 1.61928C1.55616 1.59654 2.16729 1.57949 2.78453 1.56832C3.40131 1.5572 4.01936 1.55225 4.63035 1.55518C5.25188 1.55819 5.86393 1.56906 6.47919 1.59053C7.0862 1.61169 7.71397 1.64453 8.31923 1.69107C8.93947 1.73883 9.54614 1.80039 10.1561 1.88509C10.5136 1.93464 10.8957 1.99679 11.2465 2.06476C11.3853 2.09161 11.5142 2.1181 11.6413 2.14577C11.751 2.16966 11.8577 2.19407 11.9637 2.21955C13.0609 2.46505 14.0624 2.91644 15.1123 3.38187C15.182 3.40981 15.2521 3.43557 15.3226 3.45923C16.5326 3.8653 17.8212 3.64042 18.9695 3.2662C20.1304 2.88407 21.2143 2.34039 22.2874 1.79705C22.9933 1.43936 23.6932 1.07467 24.4097 0.757406C24.769 0.598671 25.157 0.502734 25.5523 0.45481C26.7109 0.320396 27.9047 0.550397 29.048 0.866067C29.9348 1.11468 30.7982 1.42693 31.6532 1.7644C31.9906 1.89512 32.3235 2.02905 32.6507 2.16364C33.604 2.55551 34.5519 2.96888 35.4946 3.35906C33.824 2.64667 32.4961 2.05433 31.2017 1.56903C31.0285 1.50379 30.8556 1.44024 30.6832 1.37858C28.9386 0.816843 27.1088 0.0464129 24.7871 0.606951C24.6571 0.647092 24.528 0.694848 24.4058 0.748475C20.6375 2.57514 17.5578 4.37678 15.1251 3.35023C13.9155 2.7982 12.9602 2.41013 12.1059 2.20794C9.68095 1.64821 8.58313 1.65655 7.58903 1.54945C6.1672 1.41735 3.44438 1.39373 2.05194 1.44011C1.56556 1.45276 1.14882 1.43981 1.15027 1.40512C1.15124 1.37056 1.56962 1.32737 2.05743 1.31474C3.5257 1.26599 6.49359 1.28854 8.17741 1.46942C8.92125 1.56769 9.81062 1.54207 12.2136 2.10631C13.0466 2.30729 14.0056 2.70334 15.1718 3.2341C17.4965 4.23108 20.5473 2.49035 24.3554 0.633849C24.4873 0.575985 24.6262 0.524964 24.7665 0.482335C27.0716 -0.068897 28.8371 0.656895 30.5762 1.20734C30.7486 1.26795 30.9207 1.33022 31.0946 1.3948C31.0957 1.39521 31.0967 1.39562 31.0978 1.39603C32.5512 1.93082 34.0731 2.62848 36.071 3.46368C36.2768 3.54811 36.494 3.61897 36.72 3.67909C38.4012 4.10353 40.3362 4.03356 42.2057 3.97684C46.583 3.59501 50.4046 1.54241 51.7239 1.46356C52.0761 1.38245 52.4212 1.311 52.7861 1.24571C53.5725 1.10888 54.4584 0.97914 55.7778 0.948005C56.8112 0.918205 58.102 1.09805 59.7386 1.52628C60.5577 1.73296 61.5083 1.99609 62.5583 2.22097C64.1365 2.54797 65.695 2.69875 67.0533 2.71744C67.2404 2.72049 67.4243 2.72121 67.6114 2.71978C68.5744 2.7121 69.477 2.66033 70.3517 2.57941C70.6533 2.55148 70.953 2.51982 71.2556 2.48441C71.9817 2.39946 72.7055 2.2939 73.4089 2.17906C73.9705 2.08751 74.5565 1.9813 75.1754 1.86207C77.0967 1.52751 79.3137 0.868836 82.245 0.794066C82.7626 0.79142 83.2965 0.832016 83.84 0.910789C87.6615 1.66213 90.6974 2.67811 93.5035 2.85188C91.4686 2.66011 89.919 2.33018 88.6381 2.01788C88.3965 1.95871 88.1635 1.89957 87.9433 1.84253C86.3705 1.43459 85.2216 1.08532 83.9278 0.887364C83.3409 0.798588 82.778 0.754672 82.245 0.756059C77.2534 1.06249 75.3167 1.8704 73.0086 2.14485C72.3433 2.24769 71.6092 2.34934 70.8151 2.43226C69.8313 2.53504 68.7577 2.60826 67.6115 2.62049C66.9114 2.62814 66.1846 2.60558 65.4425 2.54286C63.6212 2.40806 61.6331 1.93442 59.5117 1.39591C59.5109 1.3957 59.51 1.39549 59.5092 1.39528C59.093 1.29547 58.6691 1.19979 58.2371 1.11944C57.4404 0.970342 56.6128 0.878784 55.7771 0.900701C53.8645 0.941759 51.9398 1.29981 50.1218 1.84871C49.8433 1.93156 49.5085 2.03608 49.1295 2.16083C47.5694 2.6081 45.274 3.78368 42.2049 3.95493C40.9313 3.99469 39.5529 4.03703 38.1145 3.88521C37.449 3.80873 36.7609 3.69212 36.0915 3.41411C35.6804 3.24067 35.2564 3.05392 34.8116 2.85625C34.4535 2.69707 34.0806 2.53002 33.6922 2.35809C32.0036 1.65733 29.9859 0.579534 26.9932 0.167883C26.1526 0.0842284 25.1982 0.0932484 24.2903 0.485741C22.6106 1.22268 20.9014 2.2767 18.9857 2.93056C17.7777 3.33794 16.4162 3.56588 15.2331 3.0818C15.0288 2.99919 14.8263 2.90594 14.6223 2.81287C10.2933 0.871767 5.84734 1.22193 1.65312 1.23631C1.65226 1.23633 1.6514 1.23636 1.65054 1.23639C1.14699 1.2505 0.753043 1.23738 0.770923 1.20202C0.783812 1.16703 1.20862 1.12309 1.70947 1.10941C5.91546 1.09835 10.3523 0.748009 14.7057 2.71333C14.899 2.80155 15.0894 2.88872 15.2798 2.96567C16.4101 3.43019 17.7396 3.21888 18.9393 2.81407C20.8306 2.17097 22.5421 1.11717 24.24 0.371112C25.2061 -0.0456318 26.2083 -0.0420627 27.0795 0.0511324C30.1568 0.500162 32.2014 1.60665 33.9153 2.31933C34.3259 2.50162 34.7102 2.6738 35.075 2.83535C35.4486 3.00079 35.8019 3.15526 36.1396 3.29782C36.8338 3.58507 37.5356 3.69601 38.22 3.77054C39.6165 3.90895 40.9594 3.86909 42.2007 3.82988C45.1139 3.67512 47.3363 2.56884 48.8929 2.10661C49.2847 1.97591 49.6289 1.86639 49.9265 1.77618C51.7916 1.20199 53.7842 0.816565 55.7752 0.774348C56.5271 0.75495 57.2728 0.82515 57.9958 0.948086C58.4279 1.02117 58.8526 1.11177 59.2698 1.20873C59.2707 1.20892 59.2715 1.20911 59.2724 1.20929C61.4067 1.73652 63.4085 2.24873 65.2542 2.3997C66.0776 2.47648 66.8633 2.50202 67.6116 2.49355C68.5586 2.48275 69.4466 2.43137 70.2986 2.35404C71.1181 2.27953 71.9077 2.18044 72.6844 2.06547C75.132 1.78696 77.1638 0.944227 82.2448 0.630923C82.7824 0.629533 83.3482 0.673659 83.935 0.761903ZM3.48571 1.69936C4.68497 1.70206 5.66267 1.72248 6.38359 1.74573C5.77427 1.72175 5.1531 1.70787 4.53677 1.70204C4.19078 1.6987 3.82929 1.69799 3.48571 1.69936ZM62.6777 2.37409C62.4836 2.33556 62.2941 2.29598 62.0997 2.25353C62.6309 2.37443 63.1656 2.48209 63.7024 2.57104C64.3621 2.68058 65.0269 2.76226 65.6916 2.81448C64.6313 2.7297 63.6145 2.57048 62.6777 2.37409ZM83.8308 1.03595C83.2867 0.956716 82.7566 0.91667 82.2452 0.919381C79.5656 0.980462 77.5281 1.55821 75.6449 1.90107C75.0001 2.02799 74.3742 2.14579 73.7531 2.25086C73.4939 2.29469 73.2389 2.33644 72.9774 2.37725C74.4954 2.16488 75.8807 1.89979 77.017 1.69103C79.2619 1.26915 80.8915 1.03586 82.2453 1.04514C82.9362 1.04798 83.5465 1.12203 84.1222 1.22166C84.6161 1.30784 85.0855 1.41434 85.5613 1.53153C85.9561 1.62258 86.3643 1.72408 86.7768 1.8277C87.3529 1.97249 87.9756 2.12949 88.5708 2.26664C89.1681 2.40472 89.7774 2.53282 90.3782 2.64198C90.984 2.75225 91.5863 2.84501 92.1894 2.92083C92.7596 2.99254 93.3217 3.04802 93.8729 3.08928C93.9042 3.09162 93.9355 3.09392 93.9669 3.09619C94.552 3.13838 95.1104 3.16369 95.6368 3.17654C95.8587 3.18191 96.0688 3.18494 96.2687 3.1862C96.532 3.18773 96.7701 3.17854 96.9924 3.16312C97.4753 3.12973 97.9679 3.06178 98.4511 2.96914C98.935 2.87657 99.4124 2.75981 99.8857 2.62973C100.36 2.49934 100.827 2.35662 101.296 2.21067C101.447 2.16347 101.606 2.11379 101.756 2.06673C101.826 2.04504 101.895 2.02338 101.964 2.00181C101.043 2.28002 100.094 2.57979 99.0966 2.80258C98.2067 3.00099 97.2654 3.13847 96.2695 3.12299C95.641 3.11324 95.0032 3.08876 94.3391 3.04408C91.3382 2.93618 88.0553 1.91445 83.8308 1.03595ZM115.958 4.04394C115.59 3.85156 115.061 3.55312 114.365 3.17021C114.202 3.08088 114.027 2.9859 113.844 2.88913C113.848 2.89145 113.853 2.89382 113.857 2.89613C114.31 3.14058 114.721 3.37551 115.164 3.62526C115.955 4.06782 116.723 4.49908 117.545 4.78039C117.665 4.82077 117.789 4.85875 117.91 4.89089C118.616 5.07656 119.379 5.0866 120.126 5.03306C121.012 4.96651 121.883 4.80798 122.75 4.61462C123.622 4.41868 124.473 4.18799 125.33 3.93878C125.605 3.8588 125.876 3.77816 126.15 3.69497C125.539 3.87604 124.904 4.05923 124.231 4.23776C123.694 4.37965 123.129 4.51996 122.534 4.64667C122.308 4.69454 122.028 4.75105 121.707 4.80715C120.802 4.94212 119.473 5.2251 117.916 4.86743C117.292 4.70341 116.641 4.40447 115.958 4.04394ZM132.968 1.58477C133.172 1.52961 133.37 1.47775 133.57 1.42731C133.895 1.34506 134.218 1.26859 134.534 1.20036C134.773 1.14854 135.012 1.10477 135.249 1.06826C135.641 1.00816 136.03 0.967932 136.415 0.94465C136.577 0.934802 136.739 0.927925 136.9 0.923799C137.169 0.916927 137.435 0.91761 137.701 0.924888C136.636 0.891606 135.575 0.96835 134.532 1.19107C133.766 1.35454 133.004 1.55282 132.234 1.76976C132.21 1.77646 132.187 1.78324 132.163 1.79005C132.435 1.71851 132.708 1.64862 132.968 1.58477Z" fill="#0413D8"/>
</svg>
